<?xml version="1.0" encoding="UTF-8"?><svg version="1.1" width="14px" height="14px" viewBox="0 0 14.0 14.0" xmlns="http://www.w3.org/2000/svg" xmlns:xlink="http://www.w3.org/1999/xlink"><defs><clipPath id="i0"><path d="M10,0 C12.209139,-8.49901461e-16 14,1.790861 14,4 L14,10 C14,12.209139 12.209139,14 10,14 L4,14 C1.790861,14 -1.73547709e-16,12.209139 0,10 L0,4 C-7.1463071e-16,1.790861 1.790861,-3.82769592e-17 4,0 L10,0 Z"></path></clipPath><clipPath id="i1"><path d="M0.65625,0 C0.988483795,0 1.26305459,0.246884646 1.30650921,0.567200762 L1.3125,0.65625 L1.31166535,3.51815485 L6.3455807,3.51874989 C6.6778145,3.51874989 6.95238529,3.76563454 6.99583991,4.08595065 L7.0018307,4.17499989 C7.0018307,4.50723368 6.75494606,4.78180448 6.43462994,4.8252591 L6.3455807,4.83124989 L0.65625,4.83124989 C0.324016205,4.83124989 0.0494454092,4.58436524 0.005990789,4.26404913 L0,4.17499989 L0,0.65625 C0,0.293813133 0.293813133,0 0.65625,0 Z"></path></clipPath></defs><g clip-path="url(#i0)"><polygon points="0,0 14,0 14,14 0,14 0,0" stroke="none" fill="#1370FF"></polygon></g><g transform="translate(2.816374235334804 6.808311277672766) rotate(-44.99999999999999)"><g clip-path="url(#i1)"><polygon points="-2.84217094e-14,0 7.0018307,0 7.0018307,4.83124989 -2.84217094e-14,4.83124989 -2.84217094e-14,0" stroke="none" fill="#FFFFFF"></polygon></g></g></svg>