<?xml version="1.0" encoding="UTF-8"?><svg version="1.1" width="51px" height="51px" viewBox="0 0 51.0 51.0" xmlns="http://www.w3.org/2000/svg" xmlns:xlink="http://www.w3.org/1999/xlink"><defs><clipPath id="i0"><path d="M375,0 L375,812 L0,812 L0,0 L375,0 Z"></path></clipPath><clipPath id="i1"><path d="M25,0 C38.8071187,0 50,11.1928813 50,25 C50,38.8071187 38.8071187,50 25,50 C11.1928813,50 0,38.8071187 0,25 C0,11.1928813 11.1928813,0 25,0 Z"></path></clipPath><linearGradient id="i2" x1="25px" y1="0px" x2="25px" y2="50px" gradientUnits="userSpaceOnUse"><stop stop-color="#69707B" offset="0%"></stop><stop stop-color="#383C46" offset="100%"></stop></linearGradient><filter id="i3" x="-67.9338228%" y="-52.9411765%" filterUnits="userSpaceOnUse" width="197.048318%" height="188.235294%"><feGaussianBlur stdDeviation="3" in="SourceAlpha" result="i4"></feGaussianBlur><feOffset dx="0" dy="3" in="i4" result="i5"></feOffset><feColorMatrix values="0 0 0 0.2196078431372549 0 0 0 0 0.2392156862745098 0 0 0 0 0.2666666666666667 0 0 0 0 1.0 0" type="matrix" in="i5"></feColorMatrix></filter><clipPath id="i6"><path d="M17.7271881,0 C18.4309448,0.057946202 18.9575986,0.670512388 18.9093443,1.375 L18.9093443,20.625 C18.9577958,21.3294275 18.431242,21.9420555 17.7275318,22 L9.6965006,19.0125 L1.1845631,22 C0.480990461,21.9418786 -0.0453641512,21.3293041 0.0030943472,20.625 L0.0030943472,1.375 C-0.0453641512,0.670695858 0.480990461,0.0581213895 1.1845631,0 L17.7271881,0 Z M14.0968443,12.375 L5.15934435,12.375 C4.5898007,12.375 4.12809435,12.8367064 4.12809435,13.40625 C4.12809435,13.9757936 4.5898007,14.4375 5.15934435,14.4375 L14.0968443,14.4375 C14.666388,14.4375 15.1280943,13.9757936 15.1280943,13.40625 C15.1280943,12.8367064 14.666388,12.375 14.0968443,12.375 Z M7.9282506,2.531375 C6.73028185,2.531375 5.75602645,3.60834375 5.75602645,4.932125 C5.75124078,5.59467195 6.0067685,6.23262715 6.46765685,6.708625 C7.5143756,8.08946875 9.49265685,9.2695625 9.5129381,9.28125 C9.5321881,9.268875 11.5049693,7.9825625 12.5272818,6.6020625 C12.7127355,6.38956615 12.8596607,6.14631949 12.9614381,5.88328125 C13.1197384,5.5705595 13.1811383,5.21771956 13.1377818,4.86990625 C13.129363,4.25666161 12.8970805,3.66764228 12.4846568,3.21371875 C12.0978606,2.78286414 11.5473671,2.53501105 10.9683756,2.53103125 C10.5159201,2.53228545 10.0769874,2.68541558 9.7219381,2.965875 C9.5947506,2.95865625 9.4661881,2.954875 9.3390006,2.954875 C9.28228185,2.954875 9.2235006,2.954875 9.1636881,2.95728125 C8.81044538,2.68233998 8.37587968,2.53252726 7.9282506,2.531375 Z"></path></clipPath><linearGradient id="i7" x1="0.334373408px" y1="0.0325764155px" x2="2.73420909px" y2="23.6263528px" gradientUnits="userSpaceOnUse"><stop stop-color="#FFF3D2" offset="0.0687179032%"></stop><stop stop-color="#FFE5A1" offset="100%"></stop></linearGradient></defs><g transform="translate(-49.0 -535.0)"><g clip-path="url(#i0)"><g transform="translate(49.61872496307819 535.5317173401381)"><g clip-path="url(#i1)"><polygon points="0,0 50,0 50,50 0,50 0,0" stroke="none" fill="url(#i2)" opacity="50%"></polygon></g><g transform="translate(15.543781619949675 14.0)"><path d="M17.7275318,22 L9.6965006,19.0125 L1.1845631,22 C0.480990461,21.9418786 -0.0453641512,21.3293041 0.0030943472,20.625 L0.0030943472,1.375 C-0.0453641512,0.670695858 0.480990461,0.0581213895 1.1845631,0 L17.7271881,0 C18.4309448,0.057946202 18.9575986,0.670512388 18.9093443,1.375 L18.9093443,20.625 C18.9577958,21.3294275 18.431242,21.9420555 17.7275318,22 Z M5.15934435,12.375 C4.5898007,12.375 4.12809435,12.8367064 4.12809435,13.40625 C4.12809435,13.9757936 4.5898007,14.4375 5.15934435,14.4375 L14.0968443,14.4375 C14.666388,14.4375 15.1280943,13.9757936 15.1280943,13.40625 C15.1280943,12.8367064 14.666388,12.375 14.0968443,12.375 L5.15934435,12.375 Z M7.92790685,2.531375 C6.73028185,2.531375 5.75602645,3.60834375 5.75602645,4.932125 C5.75124078,5.59467195 6.0067685,6.23262715 6.46765685,6.708625 C7.5143756,8.08946875 9.49265685,9.2695625 9.5129381,9.28125 C9.5321881,9.268875 11.5049693,7.9825625 12.5272818,6.6020625 C12.7127355,6.38956615 12.8596607,6.14631949 12.9614381,5.88328125 C13.1197384,5.5705595 13.1811383,5.21771956 13.1377818,4.86990625 C13.129363,4.25666161 12.8970805,3.66764228 12.4846568,3.21371875 C12.0978606,2.78286414 11.5473671,2.53501105 10.9683756,2.53103125 C10.5159201,2.53228545 10.0769874,2.68541558 9.7219381,2.965875 C9.5947506,2.95865625 9.4661881,2.954875 9.3390006,2.954875 C9.28228185,2.954875 9.2235006,2.954875 9.1636881,2.95728125 C8.81044538,2.68233998 8.37587968,2.53252726 7.9282506,2.531375 L7.92790685,2.531375 Z" stroke="none" fill="#000000" filter="url(#i3)"></path><g clip-path="url(#i6)"><polygon points="0,0 18.9124368,0 18.9124368,22 0,22 0,0" stroke="none" fill="url(#i7)"></polygon></g></g></g></g></g></svg>