<?xml version="1.0" encoding="UTF-8"?>
<svg width="50px" height="50px" viewBox="0 0 50 50" version="1.1" xmlns="http://www.w3.org/2000/svg" xmlns:xlink="http://www.w3.org/1999/xlink">
    <title>分享到微信</title>
    <g id="页面-1" stroke="none" stroke-width="1" fill="none" fill-rule="evenodd">
        <g id="分享到微信">
            <circle id="椭圆形备份-4" fill="#1370FF" cx="25" cy="25" r="25"></circle>
            <g id="微信" transform="translate(13.365828, 14.000000)" fill-rule="nonzero">
                <rect id="矩形" fill="#000000" opacity="0" x="0.960495838" y="0" width="22" height="22"></rect>
                <path d="M16.1932177,7.19307426 C16.4684483,7.19307426 16.7398825,7.21320965 17.0086732,7.24242847 C16.2763465,3.86741542 12.6292525,1.35923683 8.46668114,1.35923683 C3.81259233,1.35923683 0,4.49853075 0,8.4844956 C0,10.7849365 1.26869872,12.6743454 3.38797732,14.1397861 L2.54130638,16.6606758 L5.50075972,15.1916356 C6.56039903,15.3987545 7.40962905,15.6123416 8.46668114,15.6123416 C8.73223776,15.6123416 8.99517904,15.5994055 9.25685485,15.5786514 C9.09127215,15.0189661 8.99517907,14.4320305 8.99517907,13.8236097 C8.99520718,10.1635796 12.1715097,7.19307426 16.1932177,7.19307426 Z M11.6416901,4.92123348 C12.2792735,4.92123348 12.7013013,5.33676506 12.7013013,5.96723358 C12.7013013,6.59508673 12.2792735,7.0158209 11.6416901,7.0158209 C11.0066658,7.0158209 10.370376,6.59508673 10.370376,5.96723358 C10.370376,5.33676506 11.0066939,4.92123348 11.6416901,4.92123348 Z M5.71631535,7.01579276 C5.08129107,7.01579276 4.44109231,6.59505859 4.44109231,5.96720544 C4.44109231,5.33673692 5.08129107,4.92120534 5.71631535,4.92120534 C6.35063659,4.92120534 6.7733393,5.33673692 6.7733393,5.96720544 C6.7733393,6.59508673 6.35063659,7.01579276 5.71631535,7.01579276 Z M23.9209917,13.7229608 C23.9209917,10.3732858 20.5336612,7.64302725 16.7295055,7.64302725 C12.7013013,7.64302725 9.5289077,10.3732858 9.5289077,13.7229608 C9.5289077,17.077501 12.7013013,19.8019102 16.7295055,19.8019102 C17.5722674,19.8019102 18.4228473,19.5927945 19.269462,19.3824696 L21.592035,20.6407632 L20.9550422,18.5474694 C22.6549364,17.2852668 23.9209917,15.6123416 23.9209917,13.7229608 Z M14.3946431,12.6743454 C13.9732902,12.6743454 13.5480003,12.2594606 13.5480003,11.8361111 C13.5480003,11.4186391 13.9732903,10.9985517 14.3946431,10.9985517 C15.0348419,10.9985517 15.4542824,11.4186391 15.4542824,11.8361111 C15.4542824,12.2594606 15.0348419,12.6743454 14.3946431,12.6743454 Z M19.0513191,12.6743454 C18.6332285,12.6743454 18.2105257,12.2594606 18.2105257,11.8361111 C18.2105257,11.4186391 18.6332284,10.9985517 19.0513191,10.9985517 C19.6863434,10.9985517 20.1109585,11.4186391 20.1109585,11.8361111 C20.1109585,12.2594606 19.6863434,12.6743454 19.0513191,12.6743454 Z" id="形状" fill="#FFFFFF"></path>
            </g>
        </g>
    </g>
</svg>