<?xml version="1.0" encoding="UTF-8"?><svg version="1.1" width="51px" height="51px" viewBox="0 0 51.0 51.0" xmlns="http://www.w3.org/2000/svg" xmlns:xlink="http://www.w3.org/1999/xlink"><defs><clipPath id="i0"><path d="M375,0 L375,812 L0,812 L0,0 L375,0 Z"></path></clipPath><clipPath id="i1"><path d="M25,0 C38.8071187,0 50,11.1928813 50,25 C50,38.8071187 38.8071187,50 25,50 C11.1928813,50 0,38.8071187 0,25 C0,11.1928813 11.1928813,0 25,0 Z"></path></clipPath><linearGradient id="i2" x1="25px" y1="0px" x2="25px" y2="50px" gradientUnits="userSpaceOnUse"><stop stop-color="#69707B" offset="0%"></stop><stop stop-color="#383C46" offset="100%"></stop></linearGradient><filter id="i3" x="-46.6666667%" y="-33.2325221%" filterUnits="userSpaceOnUse" width="166.666667%" height="155.387537%"><feGaussianBlur stdDeviation="2" in="SourceAlpha" result="i4"></feGaussianBlur><feOffset dx="0" dy="2" in="i4" result="i5"></feOffset><feColorMatrix values="0 0 0 0.2196078431372549 0 0 0 0 0.2392156862745098 0 0 0 0 0.2666666666666667 0 0 0 0 1.0 0" type="matrix" in="i5"></feColorMatrix></filter><clipPath id="i6"><path d="M15.348449,7.70724967 L21.2386367,11.1079511 C21.9667025,11.5283001 22.2161562,12.4592742 21.7958072,13.1873399 C21.3754583,13.9154057 20.4444842,14.1648595 19.7164184,13.7445105 L15.348,11.222 L15.348449,16.2852509 C15.348449,16.3911127 15.3411526,16.4952702 15.3270352,16.5972481 C15.3413505,16.6793051 15.348449,16.7634468 15.348449,16.8492464 L15.348449,26.5869881 C15.348449,27.4276861 14.6669287,28.1092064 13.8262308,28.1092064 C12.9855328,28.1092064 12.3040125,27.4276861 12.3040125,26.5869881 L12.304,18.539 L9.695,18.539 L9.6959875,26.5869881 C9.6959875,27.4276861 9.01446717,28.1092064 8.17376923,28.1092064 C7.33307129,28.1092064 6.65155096,27.4276861 6.65155096,26.5869881 L6.65155096,16.8492464 C6.65155096,16.7634468 6.65864951,16.6793051 6.67229135,16.5973766 C6.65884741,16.4952702 6.65155096,16.3911127 6.65155096,16.2852509 L6.651,11.222 L2.28358158,13.7445105 C1.59834321,14.140133 0.733365978,13.9424355 0.283527354,13.3108149 L0.204192751,13.1873399 C-0.216156218,12.4592742 0.033297538,11.5283001 0.761363309,11.1079511 L6.65155096,7.70724967 L15.348449,7.70724967 Z M11,0 C12.9023051,0 14.4444281,1.542123 14.4444281,3.44442812 C14.4444281,5.34673324 12.9023051,6.88885624 11,6.88885624 C9.09769488,6.88885624 7.55557188,5.34673324 7.55557188,3.44442812 C7.55557188,1.542123 9.09769488,0 11,0 Z"></path></clipPath><linearGradient id="i7" x1="0.388961775px" y1="0.0416225994px" x2="3.18058433px" y2="30.187183px" gradientUnits="userSpaceOnUse"><stop stop-color="#FFF3D2" offset="0.0687179032%"></stop><stop stop-color="#FFE5A1" offset="100%"></stop></linearGradient></defs><g transform="translate(-275.0 -535.0)"><g clip-path="url(#i0)"><g transform="translate(275.3812750369225 535.5317173401381)"><g clip-path="url(#i1)"><polygon points="0,0 50,0 50,50 0,50 0,0" stroke="none" fill="url(#i2)" opacity="50%"></polygon></g><g transform="translate(14.000000000000009 10.945396797210417)"><path d="M11,6.88885624 C12.9023051,6.88885624 14.4444281,5.34673324 14.4444281,3.44442812 C14.4444281,1.542123 12.9023051,0 11,0 C9.09769488,0 7.55557188,1.542123 7.55557188,3.44442812 C7.55557188,5.34673324 9.09769488,6.88885624 11,6.88885624 Z M15.348449,7.70724967 L21.2386367,11.1079511 C21.9667025,11.5283001 22.2161562,12.4592742 21.7958072,13.1873399 C21.3754583,13.9154057 20.4444842,14.1648595 19.7164184,13.7445105 L15.348,11.222 L15.348449,16.2852509 C15.348449,16.3911127 15.3411526,16.4952702 15.3270352,16.5972481 C15.3413505,16.6793051 15.348449,16.7634468 15.348449,16.8492464 L15.348449,26.5869881 C15.348449,27.4276861 14.6669287,28.1092064 13.8262308,28.1092064 C12.9855328,28.1092064 12.3040125,27.4276861 12.3040125,26.5869881 L12.304,18.539 L9.695,18.539 L9.6959875,26.5869881 C9.6959875,27.4276861 9.01446717,28.1092064 8.17376923,28.1092064 C7.33307129,28.1092064 6.65155096,27.4276861 6.65155096,26.5869881 L6.65155096,16.8492464 C6.65155096,16.7634468 6.65864951,16.6793051 6.67229135,16.5973766 C6.65884741,16.4952702 6.65155096,16.3911127 6.65155096,16.2852509 L6.651,11.222 L2.28358158,13.7445105 C1.59834321,14.140133 0.733365978,13.9424355 0.283527354,13.3108149 L0.204192751,13.1873399 C-0.216156218,12.4592742 0.033297538,11.5283001 0.761363309,11.1079511 L6.65155096,7.70724967 L15.348449,7.70724967 Z" stroke="none" fill="#000000" filter="url(#i3)"></path><g clip-path="url(#i6)"><polygon points="6.17284002e-14,0 22,0 22,28.1092064 6.17284002e-14,28.1092064 6.17284002e-14,0" stroke="none" fill="url(#i7)"></polygon></g></g></g></g></g></svg>