<?xml version="1.0" encoding="UTF-8"?><svg version="1.1" width="50px" height="50px" viewBox="0 0 50.0 50.0" xmlns="http://www.w3.org/2000/svg" xmlns:xlink="http://www.w3.org/1999/xlink"><defs><clipPath id="i0"><path d="M25,0 C38.8071187,0 50,11.1928813 50,25 C50,38.8071187 38.8071187,50 25,50 C11.1928813,50 0,38.8071187 0,25 C0,11.1928813 11.1928813,0 25,0 Z"></path></clipPath><clipPath id="i1"><path d="M8.28407571,0 C8.85577417,0 9.34414619,0.201122758 9.74870902,0.605395927 C10.1529822,1.00976565 10.3553602,1.49659281 10.3553602,2.06790505 L10.3553602,2.75778606 L13.1166222,2.75778606 C13.3070274,2.75778606 13.4702043,2.82624312 13.6045114,2.95900537 C13.7399772,3.09572636 13.8072756,3.25668251 13.8072756,3.44776362 C13.8072756,3.63894128 13.7399772,3.79980087 13.6045114,3.93661842 C13.4702043,4.06938068 13.307124,4.13774118 13.1166222,4.13774119 L12.4262584,4.13774119 L12.4262584,12.4133201 C12.4262584,12.9845358 12.2240735,13.471363 11.8198004,13.8756361 C11.4152375,14.2800058 10.9266724,14.4831563 10.3553602,14.4831563 L3.45210857,14.4831563 C2.88021701,14.4831563 2.39223119,14.2800058 1.98766837,13.8756361 C1.58310554,13.471363 1.38101724,12.9845358 1.38101722,12.4133201 L1.38101722,4.13764463 L0.690653452,4.13764463 C0.50024822,4.13764463 0.337940325,4.06928413 0.202377981,3.93652187 C0.0676846154,3.79980087 0,3.63884473 0,3.44776362 C0,3.25668251 0.067588065,3.09582292 0.202377981,2.95900537 C0.337940325,2.82624311 0.500248234,2.75778605 0.690653452,2.75778606 L3.45210857,2.75778606 L3.45210857,2.06790505 C3.45210857,1.49659282 3.65429344,1.00976566 4.05875971,0.605492491 C4.46312944,0.201122759 4.9510187,0 5.52319992,0 L8.28407571,0 Z M11.0461102,4.13783774 L2.76145513,4.13783774 L2.76145513,12.4134167 C2.76145513,12.6024701 2.82933286,12.7653574 2.9638331,12.9001473 C3.09939545,13.0349372 3.26189645,13.1032977 3.45239824,13.1032977 L10.3557464,13.1032977 C10.5462482,13.1032977 10.7093285,13.0349372 10.8436356,12.9001473 C10.9793911,12.7653574 11.0463998,12.6024701 11.0463998,12.4133201 L11.0461102,4.13783774 Z M8.28407571,1.37995513 L5.52348958,1.37995513 C5.33308435,1.37995513 5.17077646,1.44628799 5.035021,1.58107789 C4.90052075,1.71586779 4.83283613,1.87875503 4.83283613,2.06993269 L4.83283613,2.75788261 L8.97521193,2.75788261 L8.97521193,2.06993269 C8.97521193,1.87875503 8.9071411,1.71586779 8.77283396,1.58107789 C8.63736817,1.44628799 8.47506027,1.37995513 8.28407571,1.37995513 Z"></path></clipPath></defs><g clip-path="url(#i0)"><polygon points="0,0 50,0 50,50 0,50 0,0" stroke="none" fill="#444951"></polygon></g><g transform="translate(15.0 15.0)"><g transform="translate(3.096362185351551 2.7580356597654836)"><g clip-path="url(#i1)"><polygon points="0,0 13.8072756,0 13.8072756,14.4831563 0,14.4831563 0,0" stroke="none" fill="#F3F7FF"></polygon></g></g></g></svg>