<?xml version="1.0" encoding="UTF-8"?><svg version="1.1" width="14px" height="14px" viewBox="0 0 14.0 14.0" xmlns="http://www.w3.org/2000/svg" xmlns:xlink="http://www.w3.org/1999/xlink"><defs><clipPath id="i0"><path d="M14,0 L14,14 L0,14 L0,0 L14,0 Z"></path></clipPath><clipPath id="i1"><path d="M8,0 C9.65685425,-3.04359188e-16 11,1.34314575 11,3 L11,9 C11,10.6568542 9.65685425,12 8,12 L3,12 C1.34314575,12 2.02906125e-16,10.6568542 0,9 L0,3 C-2.02906125e-16,1.34314575 1.34314575,3.04359188e-16 3,0 L8,0 Z"></path></clipPath></defs><g clip-path="url(#i0)"><g transform="translate(1.5 1.0)"><g clip-path="url(#i1)"><path d="M3,0 L8,0 C9.65685425,-3.04359188e-16 11,1.34314575 11,3 L11,9 C11,10.6568542 9.65685425,12 8,12 L3,12 C1.34314575,12 2.02906125e-16,10.6568542 0,9 L0,3 C-2.02906125e-16,1.34314575 1.34314575,3.04359188e-16 3,0 Z" stroke="#A8ADB6" stroke-width="2" fill="none" stroke-miterlimit="5"></path></g></g><g transform="translate(4.5 4.800000000000011)"><path d="M0.5,0.5 L4.5,0.5" stroke="#A8ADB6" stroke-width="1" fill="none" stroke-linecap="round" stroke-miterlimit="10"></path></g><g transform="translate(4.5 8.199999999999989)"><path d="M0.5,0.5 L4.5,0.5" stroke="#A8ADB6" stroke-width="1" fill="none" stroke-linecap="round" stroke-miterlimit="10"></path></g></g></svg>