<?xml version="1.0" encoding="UTF-8"?><svg version="1.1" width="18px" height="18px" viewBox="0 0 18.0 18.0" xmlns="http://www.w3.org/2000/svg" xmlns:xlink="http://www.w3.org/1999/xlink"><defs><clipPath id="i0"><path d="M5.0625,0 C7.85844155,0 10.125,2.26655845 10.125,5.0625 C10.125,7.85844155 7.85844155,10.125 5.0625,10.125 C2.26655845,10.125 0,7.85844155 0,5.0625 C0,2.26655845 2.26655845,0 5.0625,0 Z"></path></clipPath></defs><g transform="translate(14.0625 17.04218347116869) rotate(-180.0)"><g clip-path="url(#i0)"><path d="M5.0625,10.125 C7.85844155,10.125 10.125,7.85844155 10.125,5.0625 C10.125,2.26655845 7.85844155,0 5.0625,0 C2.26655845,0 0,2.26655845 0,5.0625 C0,7.85844155 2.26655845,10.125 5.0625,10.125 Z" stroke="#1370FF" stroke-width="3.4" fill="none" stroke-miterlimit="5"></path></g><g transform="translate(4.5 9.312426627162587)"><path d="M0.5625,0 L0.5625,4.5" stroke="#1370FF" stroke-width="1.7" fill="none" stroke-linecap="square" stroke-miterlimit="10"></path></g><g transform="translate(0.4629123049985644 11.038991587090738) rotate(-44.99999999999999)"><path d="M6.50709191,6.50709191 L0.386572443,6.11829222 L0,0" stroke="#1370FF" stroke-width="1.7" fill="none" stroke-miterlimit="10"></path></g></g></svg>