<?xml version="1.0" encoding="UTF-8"?><svg version="1.1" width="14px" height="14px" viewBox="0 0 14.0 14.0" xmlns="http://www.w3.org/2000/svg" xmlns:xlink="http://www.w3.org/1999/xlink"><defs><clipPath id="i0"><path d="M14,0 L14,14 L0,14 L0,0 L14,0 Z"></path></clipPath><clipPath id="i1"><path d="M3.35025683,0 C5.20055258,-3.39893816e-16 6.70051365,1.49996107 6.70051365,3.35025683 C6.70051365,5.20055258 5.20055258,6.70051365 3.35025683,6.70051365 C1.49996107,6.70051365 6.70685087e-16,5.20055258 0,3.35025683 C-2.26595877e-16,1.49996107 1.49996107,3.39893816e-16 3.35025683,0 Z"></path></clipPath><clipPath id="i2"><path d="M10.825925,-2 L10.825925,4.63686315 L-2,4.63686315 L-2,-2 L10.825925,-2 Z M4.41296249,0 C1.97575061,0 0,0.978011077 0,2.18444888 C0,2.47305933 2.01878435,2.62352922 4.12534194,2.63601562 L4.70058304,2.63600004 C6.80714063,2.62339984 8.82592499,2.47283042 8.82592499,2.18444888 C8.82592499,0.978011077 6.85017438,0 4.41296249,0 Z"></path></clipPath></defs><g clip-path="url(#i0)"><g transform="translate(3.649743174257276 1.113469643466909)"><g clip-path="url(#i1)"><path d="M3.35025683,0 C5.20055258,-3.39893816e-16 6.70051365,1.49996107 6.70051365,3.35025683 C6.70051365,5.20055258 5.20055258,6.70051365 3.35025683,6.70051365 C1.49996107,6.70051365 6.70685087e-16,5.20055258 0,3.35025683 C-2.26595877e-16,1.49996107 1.49996107,3.39893816e-16 3.35025683,0 Z" stroke="#A8ADB6" stroke-width="2" fill="none" stroke-miterlimit="5"></path></g></g><g transform="translate(2.5870375074443466 9.182500759196387)"><g clip-path="url(#i2)"><path d="M8.82592499,2.18444888 C8.82592499,0.978011077 6.85017438,0 4.41296249,0 C1.97575061,0 0,0.978011077 0,2.18444888 C0,2.7879071 8.82592499,2.78742847 8.82592499,2.18444888 Z" stroke="#A8ADB6" stroke-width="2" fill="none" stroke-miterlimit="5"></path></g></g></g></svg>