<?xml version="1.0" encoding="UTF-8"?><svg version="1.1" width="51px" height="50px" viewBox="0 0 51.0 50.0" xmlns="http://www.w3.org/2000/svg" xmlns:xlink="http://www.w3.org/1999/xlink"><defs><clipPath id="i0"><path d="M375,0 L375,812 L0,812 L0,0 L375,0 Z"></path></clipPath><clipPath id="i1"><path d="M25,0 C38.8071187,-2.53632657e-15 50,11.1928813 50,25 C50,38.8071187 38.8071187,50 25,50 C11.1928813,50 1.69088438e-15,38.8071187 0,25 C-1.69088438e-15,11.1928813 11.1928813,2.53632657e-15 25,0 Z"></path></clipPath><clipPath id="i2"><path d="M14.2301355,5.78628905 L14.5243729,5.80425002 C15.3066229,5.83725002 17.5026229,6.11925002 18.9126229,8.18250003 C18.8008729,8.25525003 16.2921229,9.71250003 16.3221229,12.7522266 C16.3536229,16.3829766 19.5066229,17.5904766 19.5426229,17.6069766 C19.5148729,17.6909766 19.0378729,19.3289766 17.8806229,21.0202266 L17.6182573,21.4006467 C16.6945865,22.7250007 15.700699,23.9404005 14.2078729,23.9684766 C12.5991229,23.9984766 12.0823729,23.0152266 10.2456229,23.0152266 C8.40887286,23.0152266 7.83362286,23.9377266 6.31412286,23.9984766 C4.73612285,24.0569766 3.53387285,22.4197266 2.52587285,20.9617266 C0.46262284,17.9827266 -1.11162717,12.5422266 1.00487284,8.86950003 C2.05337284,7.04475002 3.93212285,5.89050002 5.96912286,5.86050002 C7.51937286,5.83200002 8.98337287,6.90450002 9.92912287,6.90450002 C10.8778729,6.90450002 12.6553729,5.61525002 14.5243729,5.80425002 Z M14.5491229,0 C14.7036229,1.40625 14.1381229,2.81625001 13.3003729,3.83250001 C12.4618729,4.84575002 11.0871229,5.63550002 9.74012287,5.53050002 C9.55787287,4.15200001 10.2373729,2.71650001 11.0143729,1.81725001 C11.8798729,0.804000002 13.3423729,0.0495000002 14.5491229,0 Z"></path></clipPath></defs><g transform="translate(-209.0 -678.0)"><g clip-path="url(#i0)"><g transform="translate(209.5 678.0)"><g clip-path="url(#i1)"><polygon points="0,0 50,0 50,50 0,50 0,0" stroke="none" fill="#444951" opacity="30.0000012%"></polygon></g><g transform="translate(15.228480937766001 11.499999975209278)"><g clip-path="url(#i2)"><polygon points="2.22044605e-16,0 19.5426229,0 19.5426229,24 2.22044605e-16,24 2.22044605e-16,0" stroke="none" fill="#F3F7FF"></polygon></g></g></g></g></g></svg>