<?xml version="1.0" encoding="UTF-8"?><svg version="1.1" width="14px" height="14px" viewBox="0 0 14.0 14.00000000000006" xmlns="http://www.w3.org/2000/svg" xmlns:xlink="http://www.w3.org/1999/xlink"><defs><clipPath id="i0"><path d="M14,0 L14,14 L0,14 L0,0 L14,0 Z"></path></clipPath><clipPath id="i1"><path d="M3.59658073,5.68434189e-14 C4.42500786,5.66912393e-14 5.09658073,0.671572875 5.09658073,1.5 L5.096,2.358 L6.881,2.358 L6.88122762,1.5 C6.88122762,0.671572875 7.55280049,3.74224199e-16 8.38122762,0 L10.4778084,0 C11.3062355,6.98650109e-17 11.9778084,0.671572875 11.9778084,1.5 L11.9778084,6.2 C11.9778084,7.02842712 11.3062355,7.7 10.4778084,7.7 L8.38122762,7.7 C7.55280049,7.7 6.88122762,7.02842712 6.88122762,6.2 L6.881,5.344 L5.096,5.344 L5.09658073,6.2 C5.09658073,7.02842712 4.42500786,7.7 3.59658073,7.7 L1.5,7.7 C0.671572875,7.7 -1.13807429e-13,7.02842712 -1.13686838e-13,6.2 L-1.13686838e-13,1.5 C-1.14010335e-13,0.671572875 0.671572875,5.74396877e-14 1.5,5.68434189e-14 L3.59658073,5.68434189e-14 Z"></path></clipPath></defs><g clip-path="url(#i0)"><g transform="translate(0.08568827557244685 8.469589509291135) rotate(-44.99999999999999)"><g transform=""><g clip-path="url(#i1)"><path d="M3.59658073,5.68434189e-14 C4.42500786,5.66912393e-14 5.09658073,0.671572875 5.09658073,1.5 L5.096,2.358 L6.881,2.358 L6.88122762,1.5 C6.88122762,0.671572875 7.55280049,3.74224199e-16 8.38122762,0 L10.4778084,0 C11.3062355,6.98650109e-17 11.9778084,0.671572875 11.9778084,1.5 L11.9778084,6.2 C11.9778084,7.02842712 11.3062355,7.7 10.4778084,7.7 L8.38122762,7.7 C7.55280049,7.7 6.88122762,7.02842712 6.88122762,6.2 L6.881,5.344 L5.096,5.344 L5.09658073,6.2 C5.09658073,7.02842712 4.42500786,7.7 3.59658073,7.7 L1.5,7.7 C0.671572875,7.7 -1.13807429e-13,7.02842712 -1.13686838e-13,6.2 L-1.13686838e-13,1.5 C-1.14010335e-13,0.671572875 0.671572875,5.74396877e-14 1.5,5.68434189e-14 L3.59658073,5.68434189e-14 Z" stroke="#A8ADB6" stroke-width="2" fill="none" stroke-linejoin="round"></path></g></g></g></g></svg>