<?xml version="1.0" encoding="UTF-8"?><svg version="1.1" width="51px" height="50px" viewBox="0 0 51.0 50.0" xmlns="http://www.w3.org/2000/svg" xmlns:xlink="http://www.w3.org/1999/xlink"><defs><clipPath id="i0"><path d="M375,0 L375,812 L0,812 L0,0 L375,0 Z"></path></clipPath><clipPath id="i1"><path d="M25,0 C38.8071187,0 50,11.1928813 50,25 C50,38.8071187 38.8071187,50 25,50 C11.1928813,50 0,38.8071187 0,25 C0,11.1928813 11.1928813,0 25,0 Z"></path></clipPath><clipPath id="i2"><path d="M14.9737176,5.62429675 C18.3786212,5.62429675 21.410446,8.06801034 21.410446,11.0661318 C21.410446,12.757219 20.2772653,14.2545681 18.7557776,15.3843005 L19.325917,17.2578999 L17.2471017,16.1316662 C16.4893406,16.3199172 15.7280304,16.5070858 14.9737176,16.5070858 C11.3682798,16.5070858 8.52883388,14.0686077 8.52883388,11.0661318 C8.52883388,8.06801037 11.3682798,5.62429675 14.9737176,5.62429675 Z M7.57808966,0 C11.3037927,0 14.5681184,2.24494131 15.2235862,5.26574144 C14.9830055,5.23958918 14.7400588,5.22156703 14.4937141,5.22156703 C10.8940907,5.22156703 8.05114607,7.88031313 8.0511209,11.1562174 C8.0511209,11.7007835 8.13712886,12.2261192 8.2853334,12.7270647 C8.05112088,12.7456406 7.8157757,12.7572191 7.57808966,12.7572191 C6.63197685,12.7572191 5.87187485,12.5660483 4.92344635,12.3806668 L2.27459229,13.695529 L3.03240378,11.4392105 C1.13554679,10.1275702 0,8.43645772 0,6.37745167 C0,2.80982009 3.41245478,0 7.57808966,0 Z M12.8839027,8.62765363 C12.5067715,8.62765363 12.1261164,9.00365217 12.1261164,9.37730985 C12.1261164,9.75622819 12.5067715,10.1275702 12.8839027,10.1275702 C13.4569116,10.1275702 13.8323312,9.75622819 13.8323312,9.37730985 C13.8323312,9.00365217 13.4569116,8.62765363 12.8839027,8.62765363 Z M17.0518533,8.62765363 C16.6776419,8.62765363 16.2993025,9.00365217 16.2993025,9.37730985 C16.2993025,9.75622819 16.6776419,10.1275702 17.0518533,10.1275702 C17.6202308,10.1275702 18.0002818,9.75622819 18.0002818,9.37730985 C18.0002818,9.00365217 17.6202308,8.62765363 17.0518533,8.62765363 Z M10.4198764,3.18815951 C9.85152413,3.18815951 9.2819888,3.56008039 9.2819888,4.12438025 C9.2819888,4.68633923 9.85149896,5.06291669 10.4198764,5.06291669 C10.9905445,5.06291669 11.3682798,4.68633923 11.3682798,4.12438025 C11.3682798,3.56008039 10.9905445,3.18815951 10.4198764,3.18815951 Z M5.11637908,3.18813432 C4.5480016,3.18813432 3.9749927,3.56005521 3.9749927,4.12435507 C3.9749927,4.68631405 4.5480016,5.06289151 5.11637908,5.06289151 C5.68412731,5.06289151 6.0624667,4.68633923 6.0624667,4.12435507 C6.0624667,3.56005521 5.68412731,3.18813432 5.11637908,3.18813432 Z"></path></clipPath></defs><g transform="translate(-251.0 -658.0)"><g clip-path="url(#i0)"><g transform="translate(251.2502586177548 658.0)"><g clip-path="url(#i1)"><polygon points="0,0 50,0 50,50 0,50 0,0" stroke="none" fill="#4B525D"></polygon></g><g transform="translate(14.0 14.0)"><g transform="translate(0.29477697667381975 2.371050062750193)"><g clip-path="url(#i2)"><polygon points="0,0 21.410446,0 21.410446,17.2578999 0,17.2578999 0,0" stroke="none" fill="#F3F7FF"></polygon></g></g></g></g></g></g></svg>