<?xml version="1.0" encoding="UTF-8"?><svg version="1.1" width="50px" height="50px" viewBox="0 0 50.0 50.0" xmlns="http://www.w3.org/2000/svg" xmlns:xlink="http://www.w3.org/1999/xlink"><defs><clipPath id="i0"><path d="M375,0 L375,812 L0,812 L0,0 L375,0 Z"></path></clipPath><clipPath id="i1"><path d="M25,0 C38.8071187,-2.53632657e-15 50,11.1928813 50,25 C50,38.8071187 38.8071187,50 25,50 C11.1928813,50 1.69088438e-15,38.8071187 0,25 C-1.69088438e-15,11.1928813 11.1928813,2.53632657e-15 25,0 Z"></path></clipPath><clipPath id="i2"><path d="M17.8345782,6.69886816 C21.8900186,6.69886816 25.5011003,9.60947476 25.5011003,13.1804137 C25.5011003,15.194598 24.1514154,16.9780289 22.339234,18.3236066 L23.0183036,20.5551736 L20.5423124,19.2137631 C19.6397742,19.437981 18.733009,19.6609099 17.8345782,19.6609099 C13.5402897,19.6609099 10.1583427,16.7565391 10.1583427,13.1804137 C10.1583427,9.60947479 13.5402897,6.69886816 17.8345782,6.69886816 Z M9.02595041,0 C13.4634818,0 17.3514857,2.67385711 18.1321864,6.27180771 C17.8456407,6.24065883 17.5562769,6.21919339 17.2628658,6.21919339 C12.9755026,6.21919339 9.58938841,9.38591634 9.58935844,13.2877109 C9.58935844,13.9363212 9.69179897,14.562027 9.8683193,15.1586824 C9.58935841,15.1808074 9.30904846,15.1945981 9.02595041,15.1945981 C7.89907441,15.1945981 6.99374824,14.9669024 5.86411412,14.7461021 L2.70917317,16.3121803 L3.61177122,13.6247724 C1.35250301,12.0625316 0,10.0483172 0,7.59591996 C0,3.34666096 4.06443431,0 9.02595041,0 Z M15.3454858,10.2760428 C14.8963003,10.2760428 14.4429177,10.7238792 14.4429177,11.1689275 C14.4429177,11.6202415 14.8963003,12.0625316 15.3454858,12.0625316 C16.0279731,12.0625316 16.4751199,11.6202415 16.4751199,11.1689275 C16.4751199,10.7238792 16.0279731,10.2760428 15.3454858,10.2760428 Z M20.30976,10.2760428 C19.8640522,10.2760428 19.4134277,10.7238792 19.4134277,11.1689275 C19.4134277,11.6202415 19.8640522,12.0625316 20.30976,12.0625316 C20.986731,12.0625316 21.4393941,11.6202415 21.4393941,11.1689275 C21.4393941,10.7238792 20.986731,10.2760428 20.30976,10.2760428 Z M12.4106856,3.79728545 C11.7337446,3.79728545 11.0553945,4.2402651 11.0553945,4.91237941 C11.0553945,5.58170561 11.7337146,6.0302315 12.4106856,6.0302315 C13.0903847,6.0302315 13.5402897,5.58170561 13.5402897,4.91237941 C13.5402897,4.2402651 13.0903847,3.79728545 12.4106856,3.79728545 Z M6.09390835,3.79725545 C5.41693734,3.79725545 4.73445006,4.2402351 4.73445006,4.91234941 C4.73445006,5.58167561 5.41693734,6.0302015 6.09390835,6.0302015 C6.77012988,6.0302015 7.22075435,5.58170561 7.22075435,4.91234941 C7.22075435,4.2402351 6.77012988,3.79725545 6.09390835,3.79725545 Z"></path></clipPath></defs><g transform="translate(-160.0 -678.0)"><g clip-path="url(#i0)"><g transform="translate(160.0 678.0)"><g clip-path="url(#i1)"><polygon points="0,0 50,0 50,50 0,50 0,0" stroke="none" fill="#444951" opacity="30.0000012%"></polygon></g><g transform="translate(10.0 10.0)"><g transform="translate(2.197585019531255 4.577926171875001)"><g clip-path="url(#i2)"><polygon points="0,0 25.5011003,0 25.5011003,20.5551736 0,20.5551736 0,0" stroke="none" fill="#F3F7FF"></polygon></g></g></g></g></g></g></svg>