<?xml version="1.0" encoding="UTF-8"?>
<svg width="21px" height="21px" viewBox="0 0 21 21" version="1.1" xmlns="http://www.w3.org/2000/svg" xmlns:xlink="http://www.w3.org/1999/xlink">
    <title>苹果</title>
    <g id="苹果" stroke="none" stroke-width="1" fill="none" fill-rule="evenodd">
        <rect id="矩形" x="0" y="0" width="21" height="21"></rect>
        <path d="M15.9590095,11.1268555 C15.9340095,8.59375003 18.0246345,7.37937502 18.1177595,7.31875002 C16.9427595,5.59937502 15.1127595,5.36437502 14.4608845,5.33687501 C12.9033845,5.17937501 11.4221345,6.25375002 10.6315095,6.25375002 C9.84338451,6.25375002 8.62338451,5.36000002 7.33150951,5.38375002 C5.6340095,5.40875002 4.0683845,6.37062502 3.19463449,7.89125002 C1.43088449,10.9518555 2.74275949,15.4856055 4.4621345,17.9681055 C5.3021345,19.1831055 6.3040095,20.5474805 7.61900951,20.4987305 C8.88525951,20.4481055 9.36463451,19.6793555 10.8952595,19.6793555 C12.4258845,19.6793555 12.8565095,20.4987305 14.1971345,20.4737305 C15.5596345,20.4481055 16.4233845,19.2356055 17.2577595,18.0168555 C18.2221345,16.6074805 18.6196345,15.2424805 18.6427595,15.1724805 C18.6127595,15.1587305 15.9852595,14.1524805 15.9590095,11.1268555 L15.9590095,11.1268555 Z M13.4408845,3.69375001 C14.1390095,2.84687501 14.6102595,1.671875 14.4815095,0.5 C13.4758845,0.54125 12.2571345,1.17 11.5358845,2.014375 C10.8883845,2.76375001 10.3221345,3.96000001 10.4740095,5.10875001 C11.5965095,5.19625001 12.7421345,4.53812501 13.4408845,3.69375001 Z" id="形状" fill="#F4F7FF" fill-rule="nonzero"></path>
    </g>
</svg>