<?xml version="1.0" encoding="UTF-8"?><svg version="1.1" width="51px" height="50px" viewBox="0 0 51.0 50.0" xmlns="http://www.w3.org/2000/svg" xmlns:xlink="http://www.w3.org/1999/xlink"><defs><clipPath id="i0"><path d="M375,0 L375,812 L0,812 L0,0 L375,0 Z"></path></clipPath><clipPath id="i1"><path d="M25,0 C38.8071187,0 50,11.1928813 50,25 C50,38.8071187 38.8071187,50 25,50 C11.1928813,50 0,38.8071187 0,25 C0,11.1928813 11.1928813,0 25,0 Z"></path></clipPath><clipPath id="i2"><path d="M6.27052174,10.8448261 C7.81791305,10.7800435 9.26530436,11.4422174 10.4248696,12.040913 C9.90747826,12.7317826 9.36617391,13.1796087 9.05008695,13.4026522 C8.24356521,13.9704783 7.17356521,14.4683044 6.16965217,14.3956956 C5.80008695,14.3687391 4.94443479,14.2117826 4.38139131,13.6383044 C3.91660869,13.1652609 3.83747826,12.5622174 3.93747826,12.0804783 C4.01095652,11.7278696 4.264,11.4504783 4.50008695,11.2604783 C4.914,11.0417826 5.48008695,10.8778696 6.27052174,10.8448261 Z M3.589,13.638 C3.58357488,13.6235266 3.57623189,13.6053623 3.56695652,13.5804348 C3.71521738,13.8756522 3.92,14.123913 4.09826088,14.3191304 C4.44826088,14.7017391 5.04869564,15.0834783 5.86391305,15.2504348 C6.68739131,15.4186956 7.47478262,15.3195652 8.34826088,15.06 C9.73869564,14.646087 10.9695652,13.6947826 11.8021739,12.7456522 C13.5469565,13.5965217 16.3795652,15.0026087 18.0982609,15.8569565 C16.2791304,18.3647826 13.3278261,20 10,20 C4.48565217,20 0,15.5143478 0,10 C0,4.48608695 4.48565217,0 10,0 C15.5143478,0 20,4.48608695 20,10 C20,11.386087 19.716087,12.7065217 19.2043478,13.9078261 C18.1495652,13.4930435 14.9743478,12.2513044 12.7173913,11.4452174 C13.7343478,9.65826088 14.0595652,7.84521738 14.0595652,7.84521738 L10.8208696,7.84521738 L10.8208696,6.54956521 L14.8695652,6.54956521 L14.8695652,5.90173912 L10.8208696,5.90173912 L10.8208696,4.28260869 L9.36347826,4.28260869 C9.07478262,4.28260869 9.03956521,4.42869564 9.03956521,4.60652174 L9.03956521,5.90173912 L5.31521738,5.90173912 L5.31521738,6.54956521 L9.03956521,6.54956521 L9.03956521,7.84521738 L5.96304348,7.84521738 L5.96304348,8.49304348 L11.9543478,8.49304348 C11.7891304,9.09913043 11.5330435,10.0082609 11.133913,10.8582609 C9.69304348,10.3486956 7.98173912,9.91782609 6.99695652,9.91217391 C6.33217391,9.90826088 5.04869564,9.95869564 4.09043479,10.8969565 C3.65391305,11.3243478 3.48521738,11.7847826 3.40347826,12.18 C3.36956521,12.3417391 3.36347826,12.4995652 3.37086957,12.65 C3.36608695,12.7386956 3.36782609,12.823913 3.37478262,12.9047826 C3.38391305,13.0282609 3.40652174,13.146087 3.44,13.2591304 C3.47726708,13.392795 3.52106477,13.4980657 3.55176068,13.563747 L3.58552415,13.6311776 L3.589,13.638 Z"></path></clipPath></defs><g transform="translate(-73.0 -658.0)"><g clip-path="url(#i0)"><g transform="translate(73.74974138224479 658.0)"><g clip-path="url(#i1)"><polygon points="0,0 50,0 50,50 0,50 0,0" stroke="none" fill="#4B525D"></polygon></g><g transform="translate(15.0 15.0)"><g clip-path="url(#i2)"><polygon points="0,0 20,0 20,20 0,20 0,0" stroke="none" fill="#F3F7FF"></polygon></g></g></g></g></g></svg>