<?xml version="1.0" encoding="UTF-8"?><svg version="1.1" width="51px" height="50px" viewBox="0 0 51.0 50.0" xmlns="http://www.w3.org/2000/svg" xmlns:xlink="http://www.w3.org/1999/xlink"><defs><clipPath id="i0"><path d="M375,0 L375,812 L0,812 L0,0 L375,0 Z"></path></clipPath><clipPath id="i1"><path d="M25,0 C38.8071187,0 50,11.1928813 50,25 C50,38.8071187 38.8071187,50 25,50 C11.1928813,50 0,38.8071187 0,25 C0,11.1928813 11.1928813,0 25,0 Z"></path></clipPath><linearGradient id="i2" x1="25px" y1="0px" x2="25px" y2="50px" gradientUnits="userSpaceOnUse"><stop stop-color="#69707B" offset="0%"></stop><stop stop-color="#383C46" offset="100%"></stop></linearGradient><filter id="i3" x="-62.6889074%" y="-54.2386402%" filterUnits="userSpaceOnUse" width="189.555582%" height="190.397734%"><feGaussianBlur stdDeviation="3" in="SourceAlpha" result="i4"></feGaussianBlur><feOffset dx="0" dy="3" in="i4" result="i5"></feOffset><feColorMatrix values="0 0 0 0.2196078431372549 0 0 0 0 0.2392156862745098 0 0 0 0 0.2666666666666667 0 0 0 0 1.0 0" type="matrix" in="i5"></feColorMatrix></filter><clipPath id="i6"><path d="M7.65019235,11.9137123 C8.57748839,11.9137123 9.27296041,12.6091843 9.27296041,13.4205683 L9.27296041,19.5639046 C9.27296041,20.4912007 8.57748839,21.1866727 7.76610436,21.1866727 L1.50685608,21.1866727 C0.695472024,21.1866727 0,20.4912007 0,19.6798166 L0,13.4205683 C0,12.6091843 0.695472024,11.9137123 1.50685608,11.9137123 L7.65019235,11.9137123 Z M19.2413929,11.9137123 C20.0527769,11.9137123 20.7482489,12.6091843 20.7482489,13.4205683 L20.7482489,19.5639046 C20.7482489,20.3752887 20.0527769,21.0707607 19.2413929,21.0707607 L13.0980566,21.0707607 C12.2866726,21.0707607 11.5912005,20.3752887 11.5912005,19.5639046 L11.5912005,13.4205683 C11.5912005,12.6091843 12.2866725,11.9137123 13.0980566,11.9137123 L19.2413929,11.9137123 Z M17.1301589,0.387867636 L21.0457751,4.30348381 C21.6368115,4.89452022 21.6368115,5.78107482 21.1196546,6.29823168 L17.2040384,10.2138479 C16.613002,10.8048843 15.7264474,10.8048843 15.2092906,10.2877274 L11.2936744,6.37211122 C10.702638,5.78107482 10.702638,4.89452022 11.2197948,4.37736337 L15.2092906,0.387867649 C15.7264474,-0.129289214 16.613002,-0.129289214 17.1301589,0.387867636 Z M7.65019235,0.322511771 C8.57748839,0.322511771 9.27296041,1.0179838 9.27296041,1.82936785 L9.27296041,7.97270412 C9.27296041,8.90000016 8.57748839,9.59547218 7.76610436,9.59547218 L1.50685608,9.59547218 C0.695472024,9.59547218 0,8.90000016 0,8.08861613 L0,1.82936785 C0,1.0179838 0.695472024,0.322511771 1.50685608,0.322511771 L7.65019235,0.322511771 Z"></path></clipPath><linearGradient id="i7" x1="0.380099624px" y1="0.0313720842px" x2="3.10811752px" y2="22.7529001px" gradientUnits="userSpaceOnUse"><stop stop-color="#FFF3D2" offset="0.0687179032%"></stop><stop stop-color="#FFE5A1" offset="100%"></stop></linearGradient></defs><g transform="translate(-275.0 -622.0)"><g clip-path="url(#i0)"><g transform="translate(275.3812750369225 622.0)"><g clip-path="url(#i1)"><polygon points="0,0 50,0 50,50 0,50 0,0" stroke="none" fill="url(#i2)" opacity="50%"></polygon></g><g transform="translate(14.567919532338466 14.245407761025028)"><path d="M0,1.82936785 C0,1.0179838 0.695472024,0.322511771 1.50685608,0.322511771 L7.65019235,0.322511771 C8.57748839,0.322511771 9.27296041,1.0179838 9.27296041,1.82936785 L9.27296041,7.97270412 C9.27296041,8.90000016 8.57748839,9.59547218 7.76610436,9.59547218 L1.50685608,9.59547218 C0.695472024,9.59547218 0,8.90000016 0,8.08861613 L0,1.82936785 Z M0,13.4205683 C0,12.6091843 0.695472024,11.9137123 1.50685608,11.9137123 L7.65019235,11.9137123 C8.57748839,11.9137123 9.27296041,12.6091843 9.27296041,13.4205683 L9.27296041,19.5639046 C9.27296041,20.4912007 8.57748839,21.1866727 7.76610436,21.1866727 L1.50685608,21.1866727 C0.695472024,21.1866727 0,20.4912007 0,19.6798166 L0,13.4205683 Z M15.2092906,0.387867649 C15.7264474,-0.129289214 16.613002,-0.129289214 17.1301589,0.387867636 L21.0457751,4.30348381 C21.6368115,4.89452022 21.6368115,5.78107482 21.1196546,6.29823168 L17.2040384,10.2138479 C16.613002,10.8048843 15.7264474,10.8048843 15.2092906,10.2877274 L11.2936744,6.37211122 C10.702638,5.78107482 10.702638,4.89452022 11.2197948,4.37736337 L15.2092906,0.387867649 Z M11.5912005,13.4205683 C11.5912005,12.6091843 12.2866725,11.9137123 13.0980566,11.9137123 L19.2413929,11.9137123 C20.0527769,11.9137123 20.7482489,12.6091843 20.7482489,13.4205683 L20.7482489,19.5639046 C20.7482489,20.3752887 20.0527769,21.0707607 19.2413929,21.0707607 L13.0980566,21.0707607 C12.2866726,21.0707607 11.5912005,20.3752887 11.5912005,19.5639046 L11.5912005,13.4205683 Z" stroke="none" fill="#000000" filter="url(#i3)"></path><g clip-path="url(#i6)"><polygon points="0,-6.77236045e-15 21.4987494,-6.77236045e-15 21.4987494,21.1866727 0,21.1866727 0,-6.77236045e-15" stroke="none" fill="url(#i7)"></polygon></g></g></g></g></g></svg>