<?xml version="1.0" encoding="UTF-8"?><svg version="1.1" width="51px" height="50px" viewBox="0 0 51.0 50.0" xmlns="http://www.w3.org/2000/svg" xmlns:xlink="http://www.w3.org/1999/xlink"><defs><clipPath id="i0"><path d="M375,0 L375,812 L0,812 L0,0 L375,0 Z"></path></clipPath><clipPath id="i1"><path d="M25,0 C38.8071187,0 50,11.1928813 50,25 C50,38.8071187 38.8071187,50 25,50 C11.1928813,50 0,38.8071187 0,25 C0,11.1928813 11.1928813,0 25,0 Z"></path></clipPath><linearGradient id="i2" x1="25px" y1="0px" x2="25px" y2="50px" gradientUnits="userSpaceOnUse"><stop stop-color="#69707B" offset="0%"></stop><stop stop-color="#383C46" offset="100%"></stop></linearGradient><filter id="i3" x="-46.3457894%" y="-36.809816%" filterUnits="userSpaceOnUse" width="166.208271%" height="161.349693%"><feGaussianBlur stdDeviation="2" in="SourceAlpha" result="i4"></feGaussianBlur><feOffset dx="0" dy="2" in="i4" result="i5"></feOffset><feColorMatrix values="0 0 0 0.2196078431372549 0 0 0 0 0.2392156862745098 0 0 0 0 0.2666666666666667 0 0 0 0 1.0 0" type="matrix" in="i5"></feColorMatrix></filter><clipPath id="i6"><path d="M12.4579817,0.33853211 L20.853578,5.12311927 C21.666055,5.57449541 22.2077064,6.47724771 22.2077064,7.47027523 L22.2077064,17.1297248 C22.2077064,18.1227523 21.666055,19.0255046 20.853578,19.4768807 L12.4579817,24.2614679 C11.6455046,24.712844 10.5622018,24.712844 9.74972477,24.2614679 L1.35412844,19.4768807 C0.541651376,19.0255046 0,18.1227523 0,17.1297248 L0,7.47027523 C0,6.47724771 0.541651376,5.57449541 1.35412844,5.12311927 L9.74972477,0.33853211 C10.5622018,-0.112844037 11.6455046,-0.112844037 12.4579817,0.33853211 Z M20.4022018,7.92165138 L12.4579817,12.5256881 C12.2774312,12.6159633 12.187156,12.7062385 12.0066055,12.7062385 L12.0066055,22.4559633 L19.9508257,17.8519266 C20.2216514,17.6713761 20.4022018,17.4005505 20.4022018,17.0394495 L20.4022018,7.92165138 Z M10.6524771,1.78293578 L2.70825688,6.38697248 L10.6524771,10.9910092 C10.9233028,11.1715596 11.2844037,11.1715596 11.5552294,10.9910092 L19.4994495,6.38697248 L11.5552294,1.78293578 C11.2844037,1.60238532 10.9233028,1.60238532 10.6524771,1.78293578 Z"></path></clipPath><linearGradient id="i7" x1="0.392634041px" y1="0.0364263555px" x2="3.21061287px" y2="26.4185581px" gradientUnits="userSpaceOnUse"><stop stop-color="#FFF3D2" offset="0.0687179032%"></stop><stop stop-color="#FFE5A1" offset="100%"></stop></linearGradient></defs><g transform="translate(-162.0 -622.0)"><g clip-path="url(#i0)"><g transform="translate(162.5 622.0)"><g clip-path="url(#i1)"><polygon points="0,0 50,0 50,50 0,50 0,0" stroke="none" fill="url(#i2)" opacity="50%"></polygon></g><g transform="translate(13.896146788990766 13.000000000000114)"><path d="M12.4579817,0.33853211 L20.853578,5.12311927 C21.666055,5.57449541 22.2077064,6.47724771 22.2077064,7.47027523 L22.2077064,17.1297248 C22.2077064,18.1227523 21.666055,19.0255046 20.853578,19.4768807 L12.4579817,24.2614679 C11.6455046,24.712844 10.5622018,24.712844 9.74972477,24.2614679 L1.35412844,19.4768807 C0.541651376,19.0255046 0,18.1227523 0,17.1297248 L0,7.47027523 C0,6.47724771 0.541651376,5.57449541 1.35412844,5.12311927 L9.74972477,0.33853211 C10.5622018,-0.112844037 11.6455046,-0.112844037 12.4579817,0.33853211 Z M20.4022018,7.92165138 L12.4579817,12.5256881 C12.2774312,12.6159633 12.187156,12.7062385 12.0066055,12.7062385 L12.0066055,22.4559633 L19.9508257,17.8519266 C20.2216514,17.6713761 20.4022018,17.4005505 20.4022018,17.0394495 L20.4022018,7.92165138 Z M10.6524771,1.78293578 L2.70825688,6.38697248 L10.6524771,10.9910092 C10.9233028,11.1715596 11.2844037,11.1715596 11.5552294,10.9910092 L19.4994495,6.38697248 L11.5552294,1.78293578 C11.2844037,1.60238532 10.9233028,1.60238532 10.6524771,1.78293578 Z" stroke="none" fill="#000000" filter="url(#i3)"></path><g clip-path="url(#i6)"><polygon points="0,0 22.2077064,0 22.2077064,24.6 0,24.6 0,0" stroke="none" fill="url(#i7)"></polygon></g></g></g></g></g></svg>