<?xml version="1.0" encoding="UTF-8"?><svg version="1.1" width="18px" height="18px" viewBox="0 0 18.0 18.0" xmlns="http://www.w3.org/2000/svg" xmlns:xlink="http://www.w3.org/1999/xlink"><defs><clipPath id="i0"><path d="M375,0 L375,812 L0,812 L0,0 L375,0 Z"></path></clipPath><clipPath id="i1"><path d="M18,2.63237164e-15 L18,18 L-2.20436424e-15,18 L2.20436424e-15,-1.77635684e-15 L18,2.63237164e-15 Z"></path></clipPath></defs><g transform="translate(-40.0 -522.0)"><g clip-path="url(#i0)"><g transform="translate(20.0 501.0)"><g transform="translate(20.0 21.00000000000004)"><g clip-path="url(#i1)"><g transform="translate(1.1054039861014635 1.0296265556351045)"><path d="M5.52057178,0 L12.0596709,0 L12.0596709,0 C12.0596709,2.59203244 12.0596709,4.52691868 12.0596709,5.80465871 C12.0596709,7.72126877 9.97201674,7.02805241 9.97201674,8.53769436 C9.97201674,10.0473363 15.789192,9.35818491 15.789192,12.9946231 C15.789192,13.5928333 15.789192,14.1910434 15.789192,14.7892536 C15.789192,15.3415383 15.3414768,15.7892536 14.789192,15.7892536 L1,15.7892536 C0.44771525,15.7892536 6.76353751e-17,15.3415383 0,14.7892536 C0,14.1894223 0,13.589591 0,12.9897598 C0,9.35411995 5.63195058,10.0473363 5.63195058,8.53972684 C5.63195058,7.03211738 3.52057178,7.72126877 3.52057178,5.79967178 C3.52057178,4.53311452 3.52057178,3.26655726 3.52057178,2 C3.52057178,0.8954305 4.41600228,-1.33407838e-13 5.52057178,0 Z" stroke="#BDC3CE" stroke-width="1.5" fill="none" stroke-miterlimit="10"></path></g></g></g></g></g></g></svg>