<?xml version="1.0" encoding="UTF-8"?><svg version="1.1" width="50px" height="50px" viewBox="0 0 50.0 50.0" xmlns="http://www.w3.org/2000/svg" xmlns:xlink="http://www.w3.org/1999/xlink"><defs><clipPath id="i0"><path d="M375,0 L375,812 L0,812 L0,0 L375,0 Z"></path></clipPath><clipPath id="i1"><path d="M25,0 C38.8071187,0 50,11.1928813 50,25 C50,38.8071187 38.8071187,50 25,50 C11.1928813,50 0,38.8071187 0,25 C0,11.1928813 11.1928813,0 25,0 Z"></path></clipPath><clipPath id="i2"><path d="M16.7295055,6.28379042 C20.5336612,6.28379042 23.9209917,9.01404893 23.9209917,12.363724 C23.9209917,14.2531047 22.6549364,15.92603 20.9550422,17.1882325 L21.592035,19.2815263 L19.269462,18.0232328 C18.4228473,18.2335577 17.5722674,18.4426733 16.7295055,18.4426733 C12.7013013,18.4426733 9.5289077,15.7182642 9.5289077,12.363724 C9.5289077,9.01404896 12.7013013,6.28379042 16.7295055,6.28379042 Z M8.46668114,0 C12.6292525,0 16.2763465,2.50817859 17.0086732,5.88319164 C16.7398825,5.85397282 16.4684483,5.83383743 16.1932177,5.83383743 C12.1715097,5.83383743 8.99520718,8.80434272 8.99517907,12.4643729 C8.99517907,13.0727937 9.09127215,13.6597293 9.25685485,14.2194145 C8.99517904,14.2401686 8.73223776,14.2531048 8.46668114,14.2531048 C7.40962905,14.2531048 6.56039903,14.0395177 5.50075972,13.8323987 L2.54130638,15.301439 L3.38797732,12.7805492 C1.26869872,11.3151086 0,9.4256997 0,7.12525876 C0,3.13929391 3.81259233,0 8.46668114,0 Z M14.3946431,9.63931486 C13.9732903,9.63931486 13.5480003,10.0594022 13.5480003,10.4768743 C13.5480003,10.9002238 13.9732902,11.3151086 14.3946431,11.3151086 C15.0348419,11.3151086 15.4542824,10.9002238 15.4542824,10.4768743 C15.4542824,10.0594022 15.0348419,9.63931486 14.3946431,9.63931486 Z M19.0513191,9.63931486 C18.6332284,9.63931486 18.2105257,10.0594022 18.2105257,10.4768743 C18.2105257,10.9002238 18.6332285,11.3151086 19.0513191,11.3151086 C19.6863434,11.3151086 20.1109585,10.9002238 20.1109585,10.4768743 C20.1109585,10.0594022 19.6863434,9.63931486 19.0513191,9.63931486 Z M11.6416901,3.56199665 C11.0066939,3.56199665 10.370376,3.97752823 10.370376,4.60799675 C10.370376,5.2358499 11.0066658,5.65658407 11.6416901,5.65658407 C12.2792735,5.65658407 12.7013013,5.2358499 12.7013013,4.60799675 C12.7013013,3.97752823 12.2792735,3.56199665 11.6416901,3.56199665 Z M5.71631535,3.5619685 C5.08129107,3.5619685 4.44109231,3.97750008 4.44109231,4.6079686 C4.44109231,5.23582176 5.08129107,5.65655593 5.71631535,5.65655593 C6.35063659,5.65655593 6.7733393,5.2358499 6.7733393,4.6079686 C6.7733393,3.97750008 6.35063659,3.5619685 5.71631535,3.5619685 Z"></path></clipPath></defs><g transform="translate(-47.0 -658.0)"><g clip-path="url(#i0)"><g transform="translate(47.0 658.0)"><g clip-path="url(#i1)"><polygon points="0,0 50,0 50,50 0,50 0,0" stroke="none" fill="#4B525D"></polygon></g><g transform="translate(13.365828425376876 14.0)"><g transform="translate(0.0 1.3592368332592741)"><g clip-path="url(#i2)"><polygon points="0,0 23.9209917,0 23.9209917,19.2815263 0,19.2815263 0,0" stroke="none" fill="#BDC3CE"></polygon></g></g></g></g></g></g></svg>