<?xml version="1.0" encoding="UTF-8"?><svg version="1.1" width="50px" height="50px" viewBox="0 0 50.0 50.0" xmlns="http://www.w3.org/2000/svg" xmlns:xlink="http://www.w3.org/1999/xlink"><defs><clipPath id="i0"><path d="M375,0 L375,812 L0,812 L0,0 L375,0 Z"></path></clipPath><clipPath id="i1"><path d="M25,0 C38.8071187,0 50,11.1928813 50,25 C50,38.8071187 38.8071187,50 25,50 C11.1928813,50 0,38.8071187 0,25 C0,11.1928813 11.1928813,0 25,0 Z"></path></clipPath></defs><g transform="translate(-285.0 -658.0)"><g clip-path="url(#i0)"><g transform="translate(285.0 658.0)"><g clip-path="url(#i1)"><polygon points="0,0 50,0 50,50 0,50 0,0" stroke="none" fill="#4B525D"></polygon></g><g transform="translate(17.928932188135146 16.18172765291365)"><g transform="translate(6.571067811865305 0.0)"><path d="M0.5,0.823003807 L0.5,15.5" stroke="#BDC3CE" stroke-width="4" fill="none" stroke-linecap="round" stroke-linejoin="round"></path></g><g transform="translate(7.07106781186511 17.073783518447133) rotate(-135.0)"><path d="M0,10 L0,0 L10,0" stroke="#BDC3CE" stroke-width="4" fill="none" stroke-linecap="round" stroke-linejoin="round"></path></g></g></g></g></g></svg>