<?xml version="1.0" encoding="UTF-8"?><svg version="1.1" width="51px" height="50px" viewBox="0 0 51.0 50.0" xmlns="http://www.w3.org/2000/svg" xmlns:xlink="http://www.w3.org/1999/xlink"><defs><clipPath id="i0"><path d="M375,0 L375,812 L0,812 L0,0 L375,0 Z"></path></clipPath><clipPath id="i1"><path d="M25,0 C38.8071187,0 50,11.1928813 50,25 C50,38.8071187 38.8071187,50 25,50 C11.1928813,50 0,38.8071187 0,25 C0,11.1928813 11.1928813,0 25,0 Z"></path></clipPath><clipPath id="i2"><path d="M6.28300331,11.9673502 L12.5532078,19.6680549 C11.7160076,19.8884637 10.8586663,20.0000021 10.000643,20.0000021 C8.6581297,20.0000021 7.35268884,19.7359209 6.11906591,19.215221 L6.28300331,11.9673502 Z M8.76160364,14.0207003 L18.642724,15.0312664 C18.209329,15.7750431 17.6825909,16.4604026 17.0711156,17.0704536 C16.123701,18.0205563 15.0130713,18.7569706 13.772086,19.2608996 L8.76160364,14.0207003 Z M5.98130793,8.76234587 L4.96939769,18.6414 C4.22423679,18.2073229 3.53891747,17.6792407 2.93017045,17.0704536 C1.98076988,16.1230791 1.24435552,15.0137734 0.741108604,13.7714239 L5.98130793,8.76234587 Z M19.6673528,7.44741624 C19.8884236,8.28058416 19.999962,9.13928956 19.999962,9.99998099 C19.999962,11.3478305 19.7352589,12.6520476 19.2144988,13.8816183 L11.9666481,13.719025 L19.6673528,7.44741624 Z M0.786105132,6.11970784 L8.03465801,6.28230117 L0.333271182,12.5539099 C0.112200436,11.7214642 0,10.8633806 0,9.99998099 C0,8.65616371 0.264703132,7.35068275 0.786105132,6.11970784 Z M15.0305443,1.35926413 C15.7750231,1.79131503 16.4617266,2.31873527 17.0711156,2.9288464 C18.0212183,3.87624091 18.7575925,4.98689073 19.2601774,6.22789607 L14.0199781,11.2382982 L15.0305443,1.35926413 Z M10.000643,0 C11.3431162,0 12.6485972,0.26406118 13.8822201,0.786145242 L13.7182827,8.03401605 L7.44809832,0.333311292 C8.28391427,0.11157854 9.14195766,0 10.000643,0 Z M6.22857817,0.739744442 L11.2396423,5.98000395 L1.35856203,4.96943778 C1.79530716,4.21890057 2.32344961,3.53219705 2.92950845,2.9288464 C3.87820689,1.98008778 4.98755277,1.24371353 6.22857817,0.739744442 Z"></path></clipPath></defs><g transform="translate(-169.0 -658.0)"><g clip-path="url(#i0)"><g transform="translate(169.5 658.0)"><g clip-path="url(#i1)"><polygon points="0,0 50,0 50,50 0,50 0,0" stroke="none" fill="#4B525D"></polygon></g><g transform="translate(15.0 14.999998945136012)"><g transform="translate(1.900000006571645e-05 1.7763568394002505e-15)"><g clip-path="url(#i2)"><polygon points="0,0 19.999962,0 19.999962,20.0000021 0,20.0000021 0,0" stroke="none" fill="#BDC3CE"></polygon></g></g></g></g></g></g></svg>