<?xml version="1.0" encoding="UTF-8"?><svg version="1.1" width="20px" height="20px" viewBox="0 0 20.0 20.0" xmlns="http://www.w3.org/2000/svg" xmlns:xlink="http://www.w3.org/1999/xlink"><defs><clipPath id="i0"><path d="M20,0 L20,20 L0,20 L0,0 L20,0 Z"></path></clipPath><clipPath id="i1"><path d="M11.9164147,0 L11.9164147,7.02152201 L9.18054293,8.44554313 L9.18054293,8.75254313 L14.5579129,10.4996575 L14.5579129,15.5841195 L13.0579129,15.5841195 L13.0575429,11.5895431 L7.6807808,9.84246415 L7.6807808,7.5359978 L10.4155429,6.11054313 L10.415,1.505 L7.279,1.502 L4.142,1.505 L4.14236997,6.11054313 L6.8771321,7.5359978 L6.8771321,9.84246415 L1.50036997,11.5895431 L1.5,15.5841195 L0,15.5841195 L0,10.4996575 L5.37736997,8.75254313 L5.37736997,8.44554313 L2.64149815,7.02152201 L2.64149815,0 L7.278,0.003 L11.9164147,0 Z M8.02895645,12.0841195 L8.02895645,15.5841195 L6.52895645,15.5841195 L6.52895645,12.0841195 L8.02895645,12.0841195 Z"></path></clipPath></defs><g clip-path="url(#i0)"><g transform="translate(3.095772087366246 1.832668704786009)"><g clip-path="url(#i1)"><polygon points="0,0 14.5579129,0 14.5579129,15.5841195 0,15.5841195 0,0" stroke="none" fill="#F3F7FF" opacity="50%"></polygon></g></g></g></svg>