<?xml version="1.0" encoding="UTF-8"?><svg version="1.1" width="20px" height="20px" viewBox="0 0 20.0 20.0" xmlns="http://www.w3.org/2000/svg" xmlns:xlink="http://www.w3.org/1999/xlink"><defs><clipPath id="i0"><path d="M20,0 L20,20 L0,20 L0,0 L20,0 Z"></path></clipPath><clipPath id="i1"><path d="M7.76575157,0 L6.03239849,14.4104868 L0,14.4104868 L1.73335308,0 L7.76575157,0 Z M6.084,1.5 L3.071,1.5 L1.681,12.9100495 L4.694,12.9100495 L6.084,1.5 Z"></path></clipPath><clipPath id="i2"><path d="M7.76575157,0 L6.03239849,14.4104868 L0,14.4104868 L1.73335308,0 L7.76575157,0 Z M6.08439721,1.5 L3.07139721,1.5 L1.68039721,12.9100495 L4.69339721,12.9100495 L6.08439721,1.5 Z"></path></clipPath><clipPath id="i3"><path d="M8.14770615,0 L7.44225025,5.79730258 L0,5.79730258 L0.696123161,0 L8.14770615,0 Z M6.4668374,1.49943262 L2.0344111,1.49943262 L1.68092382,4.29643262 L6.1037776,4.29643262 L6.4668374,1.49943262 Z"></path></clipPath></defs><g clip-path="url(#i0)"><g transform="translate(0.878322820317182 2.7947565844741797)"><g opacity="50%"><g clip-path="url(#i1)"><polygon points="0,0 7.76575157,0 7.76575157,14.4104868 0,14.4104868 0,0" stroke="none" fill="#F3F7FF"></polygon></g><g transform="translate(10.47760278989017 0.0)"><g clip-path="url(#i2)"><polygon points="0,0 7.76575157,0 7.76575157,14.4104868 0,14.4104868 0,0" stroke="none" fill="#F3F7FF"></polygon></g></g><g transform="translate(5.051689927156738 4.281865865258851)"><g clip-path="url(#i3)"><polygon points="0,0 8.14770615,0 8.14770615,5.79730258 0,5.79730258 0,0" stroke="none" fill="#F3F7FF"></polygon></g></g></g></g></g></svg>